<svg width="319" height="192" viewBox="0 0 319 192" fill="none" xmlns="http://www.w3.org/2000/svg">
<path d="M63.36 68.296C70.3573 68.296 75.7333 70.344 79.488 74.44C83.2427 78.4507 85.12 83.9973 85.12 91.08C85.12 93.64 84.864 96.328 84.352 99.144L76.928 141H48.64L55.424 102.728C55.5947 101.363 55.68 100.424 55.68 99.912C55.68 97.2667 54.912 95.2187 53.376 93.768C51.9253 92.3173 49.8773 91.592 47.232 91.592C44.16 91.592 41.5573 92.5733 39.424 94.536C37.2907 96.4987 35.8827 99.1867 35.2 102.6L28.416 141H0L12.8 68.808H41.216L39.296 79.688C42.112 76.2747 45.568 73.544 49.664 71.496C53.76 69.3627 58.3253 68.296 63.36 68.296ZM207.037 82.12C210.706 77.9387 214.802 74.6107 219.325 72.136C223.933 69.576 228.498 68.296 233.021 68.296L227.773 98.632H219.709C214.333 98.632 210.194 99.5707 207.293 101.448C204.477 103.325 202.642 106.653 201.789 111.432L196.541 141H168.125L180.925 68.808H209.341L207.037 82.12ZM230.435 104.904C231.8 97.3093 234.275 90.7387 237.859 85.192C241.443 79.56 245.752 75.2933 250.787 72.392C255.822 69.4053 261.155 67.912 266.787 67.912C271.48 67.912 275.32 68.8933 278.307 70.856C281.379 72.7333 283.512 75.336 284.707 78.664L290.467 46.28H318.883L302.115 141H273.699L275.491 131.144C273.102 134.472 270.03 137.117 266.275 139.08C262.606 140.957 258.424 141.896 253.731 141.896C246.478 141.896 240.632 139.464 236.195 134.6C231.758 129.736 229.539 122.995 229.539 114.376C229.539 111.133 229.838 107.976 230.435 104.904ZM280.227 104.904C280.398 104.136 280.483 103.112 280.483 101.832C280.483 98.9307 279.715 96.712 278.179 95.176C276.643 93.5547 274.552 92.744 271.907 92.744C268.835 92.744 266.104 93.8107 263.715 95.944C261.411 98.0773 259.918 101.064 259.235 104.904C259.064 105.672 258.979 106.696 258.979 107.976C258.979 110.877 259.747 113.139 261.283 114.76C262.819 116.296 264.91 117.064 267.555 117.064C270.627 117.064 273.315 115.997 275.619 113.864C278.008 111.731 279.544 108.744 280.227 104.904Z" fill="white"/>
<path d="M135.202 67.912C144.759 67.912 152.354 70.472 157.986 75.592C163.618 80.6267 166.434 87.5387 166.434 96.328C166.434 98.8027 166.178 101.448 165.666 104.264C165.069 107.08 164.599 108.957 164.258 109.896H118.69C118.605 110.408 118.562 111.133 118.562 112.072C118.562 116.851 120.61 119.24 124.706 119.24C127.863 119.24 130.338 117.832 132.13 115.016H162.21C160.333 120.136 157.389 124.744 153.378 128.84C149.367 132.851 144.631 136.051 139.17 138.44C133.794 140.744 128.119 141.896 122.146 141.896C112.589 141.896 104.994 139.379 99.362 134.344C93.8153 129.224 91.042 122.141 91.042 113.096C91.042 110.451 91.298 107.72 91.81 104.904C93.1753 97.3947 95.906 90.8667 100.002 85.32C104.098 79.688 109.175 75.3787 115.234 72.392C121.378 69.4053 128.034 67.912 135.202 67.912ZM137.89 98.248C137.975 97.8213 138.018 97.1813 138.018 96.328C138.018 94.28 137.378 92.744 136.098 91.72C134.818 90.696 133.197 90.184 131.234 90.184C126.114 90.184 122.658 92.872 120.866 98.248H137.89Z" fill="#FFAA04"/>
<path d="M21.02 60.14C19.9533 60.14 19.0067 59.9667 18.18 59.62C17.3667 59.2733 16.72 58.7933 16.24 58.18C15.76 57.5667 15.4867 56.8733 15.42 56.1H19.68C19.7333 56.4333 19.8733 56.68 20.1 56.84C20.34 57 20.64 57.08 21 57.08C21.2267 57.08 21.4067 57.0333 21.54 56.94C21.6733 56.8333 21.74 56.7067 21.74 56.56C21.74 56.3067 21.6 56.1267 21.32 56.02C21.04 55.9133 20.5667 55.7933 19.9 55.66C19.0867 55.5 18.4133 55.3267 17.88 55.14C17.36 54.9533 16.9 54.6333 16.5 54.18C16.1133 53.7267 15.92 53.1 15.92 52.3C15.92 51.6067 16.1 50.98 16.46 50.42C16.8333 49.8467 17.38 49.4 18.1 49.08C18.82 48.7467 19.6933 48.58 20.72 48.58C22.24 48.58 23.4267 48.9533 24.28 49.7C25.1467 50.4467 25.6667 51.42 25.84 52.62H21.9C21.8333 52.3133 21.6933 52.08 21.48 51.92C21.2667 51.7467 20.98 51.66 20.62 51.66C20.3933 51.66 20.22 51.7067 20.1 51.8C19.98 51.88 19.92 52.0067 19.92 52.18C19.92 52.4067 20.06 52.58 20.34 52.7C20.62 52.8067 21.0667 52.92 21.68 53.04C22.4933 53.2 23.18 53.38 23.74 53.58C24.3 53.78 24.7867 54.1267 25.2 54.62C25.6133 55.1 25.82 55.7667 25.82 56.62C25.82 57.2867 25.6267 57.8867 25.24 58.42C24.8533 58.9533 24.2933 59.3733 23.56 59.68C22.84 59.9867 21.9933 60.14 21.02 60.14ZM34.602 56.22V60H32.922C29.8287 60 28.282 58.46 28.282 55.38V52.42H26.882V48.72H28.282V46H32.722V48.72H34.562V52.42H32.722V55.46C32.722 55.7267 32.782 55.92 32.902 56.04C33.0354 56.16 33.2487 56.22 33.542 56.22H34.602ZM41.653 60.14C40.5196 60.14 39.4996 59.9067 38.593 59.44C37.6863 58.9733 36.973 58.3067 36.453 57.44C35.9463 56.56 35.693 55.5333 35.693 54.36C35.693 53.1867 35.9463 52.1667 36.453 51.3C36.973 50.42 37.6863 49.7467 38.593 49.28C39.4996 48.8133 40.5196 48.58 41.653 48.58C42.7863 48.58 43.8063 48.8133 44.713 49.28C45.6196 49.7467 46.3263 50.42 46.833 51.3C47.353 52.1667 47.613 53.1867 47.613 54.36C47.613 55.5333 47.353 56.56 46.833 57.44C46.3263 58.3067 45.6196 58.9733 44.713 59.44C43.8063 59.9067 42.7863 60.14 41.653 60.14ZM41.653 56.3C42.0663 56.3 42.413 56.14 42.693 55.82C42.973 55.4867 43.113 55 43.113 54.36C43.113 53.72 42.973 53.24 42.693 52.92C42.413 52.5867 42.0663 52.42 41.653 52.42C41.2396 52.42 40.893 52.5867 40.613 52.92C40.333 53.24 40.193 53.72 40.193 54.36C40.193 55 40.3263 55.4867 40.593 55.82C40.873 56.14 41.2263 56.3 41.653 56.3ZM53.4478 50.8C53.9011 50.1467 54.4545 49.6267 55.1078 49.24C55.7611 48.84 56.4411 48.64 57.1478 48.64V53.38H55.8878C55.0478 53.38 54.4278 53.5267 54.0278 53.82C53.6411 54.1133 53.4478 54.6333 53.4478 55.38V60H49.0078V48.72H53.4478V50.8ZM69.2638 54.26C69.2638 54.5667 69.2438 54.86 69.2038 55.14H62.0638C62.1304 56.1133 62.5371 56.6 63.2838 56.6C63.7638 56.6 64.1104 56.38 64.3238 55.94H69.0238C68.8638 56.74 68.5238 57.46 68.0038 58.1C67.4971 58.7267 66.8504 59.2267 66.0638 59.6C65.2904 59.96 64.4371 60.14 63.5038 60.14C62.3838 60.14 61.3838 59.9067 60.5038 59.44C59.6371 58.9733 58.9571 58.3067 58.4638 57.44C57.9838 56.56 57.7438 55.5333 57.7438 54.36C57.7438 53.1867 57.9838 52.1667 58.4638 51.3C58.9571 50.42 59.6371 49.7467 60.5038 49.28C61.3838 48.8133 62.3838 48.58 63.5038 48.58C64.6238 48.58 65.6171 48.8133 66.4838 49.28C67.3638 49.7333 68.0438 50.3867 68.5238 51.24C69.0171 52.0933 69.2638 53.1 69.2638 54.26ZM64.7638 53.2C64.7638 52.8267 64.6438 52.5467 64.4038 52.36C64.1638 52.16 63.8638 52.06 63.5038 52.06C62.7171 52.06 62.2571 52.44 62.1238 53.2H64.7638ZM72.868 60.16C72.0946 60.16 71.4746 59.9533 71.008 59.54C70.5413 59.1267 70.308 58.6067 70.308 57.98C70.308 57.34 70.5413 56.8133 71.008 56.4C71.4746 55.9733 72.0946 55.76 72.868 55.76C73.628 55.76 74.2413 55.9733 74.708 56.4C75.1746 56.8133 75.408 57.34 75.408 57.98C75.408 58.6067 75.1746 59.1267 74.708 59.54C74.2413 59.9533 73.628 60.16 72.868 60.16Z" fill="#FFAA04"/>
</svg>
